<?xml version="1.0" encoding="UTF-8"?>
<svg width="17px" height="17px" viewBox="0 0 17 17" version="1.1" xmlns="http://www.w3.org/2000/svg" xmlns:xlink="http://www.w3.org/1999/xlink">
    <title>A28A66BF-AC7E-4479-8496-3A42E1EDA696</title>
    <g id="Page-1" stroke="none" stroke-width="1" fill="none" fill-rule="evenodd">
        <g id="Menu" transform="translate(-346.000000, -52.000000)" fill="#FFFFFF" stroke="#FFFFFF" stroke-width="0.2">
            <g id="Close-icon" transform="translate(347.000000, 53.000000)">
                <path d="M1.74504249,0.299401957 L7.842,6.396 L13.9387061,0.299401957 C14.3379087,-0.0998006523 14.985144,-0.0998006523 15.3843466,0.299401957 C15.7835492,0.698604566 15.7835492,1.34583988 15.3843466,1.74504249 L9.288,7.842 L15.3843466,13.9387061 C15.7835492,14.3379087 15.7835492,14.985144 15.3843466,15.3843466 C14.985144,15.7835492 14.3379087,15.7835492 13.9387061,15.3843466 L7.842,9.288 L1.74504249,15.3843466 C1.34583988,15.7835492 0.698604566,15.7835492 0.299401957,15.3843466 C-0.0998006523,14.985144 -0.0998006523,14.3379087 0.299401957,13.9387061 L6.396,7.842 L0.299401957,1.74504249 C-0.0998006523,1.34583988 -0.0998006523,0.698604566 0.299401957,0.299401957 C0.698604566,-0.0998006523 1.34583988,-0.0998006523 1.74504249,0.299401957 Z" id="Combined-Shape"></path>
            </g>
        </g>
    </g>
</svg>