<?xml version="1.0" encoding="UTF-8"?>
<svg width="27px" height="21px" viewBox="0 0 27 21" version="1.1" xmlns="http://www.w3.org/2000/svg" xmlns:xlink="http://www.w3.org/1999/xlink">
    <title>1E7ADD1E-1307-4CE8-9205-CA0D0C81D70E</title>
    <g id="Page-1" stroke="none" stroke-width="1" fill="none" fill-rule="evenodd">
        <g id="Home" transform="translate(-34.000000, -16464.000000)" fill="#FFFFFF" fill-rule="nonzero">
            <g id="Group" transform="translate(0.000000, 16458.000000)">
                <g id="Home-icon" transform="translate(34.000000, 6.000000)">
                    <path d="M13.059609,0.000153614883 C12.8636796,0.00384581442 12.6649777,0.0730745557 12.472283,0.199070865 L0.36671308,9.74386819 C0.0557214188,10.0521669 -0.162850729,10.7163012 0.157382883,11.1256739 C0.477616496,11.535508 1.15181684,11.589968 1.54090299,11.2452088 L13.0591469,2.16793627 L24.5773908,11.2452088 C24.966477,11.5904295 25.6550023,11.5461231 25.9609109,11.1256739 C26.2293896,10.7569154 26.1637717,10.0512438 25.7520428,9.74386819 L13.6473971,0.199070865 C13.448233,0.0592288075 13.2555384,-0.00353858465 13.0600711,0.000153614883 L13.059609,0.000153614883 Z M5.41420478,7.26917145 L3.50296925,8.78066564 L3.50296925,20.0455664 L3.50296925,20.0455664 C3.50296925,20.2984821 3.60370652,20.5412442 3.78300038,20.7203159 C3.96229423,20.8993876 4.20535755,20.9995385 4.45858702,21 L10.5111409,21 C10.7648325,21 11.0078958,20.8993876 11.1867276,20.7203159 C11.3660214,20.5412442 11.4667587,20.2984821 11.4667587,20.0455664 L11.4667587,16.2278321 C11.4667587,15.3301661 12.1608292,14.6369556 13.059609,14.6369556 C13.9583888,14.6369556 14.6524593,15.3301661 14.6524593,16.2278321 L14.6524593,20.0455664 C14.6524593,20.2984821 14.7531966,20.5412442 14.9324904,20.7203159 C15.1117843,20.8993876 15.3548476,20.9995385 15.6080771,21 L21.660631,21 C21.9143225,21 22.1573859,20.8993876 22.3362176,20.7203159 C22.5155115,20.5412442 22.6162487,20.2984821 22.6162487,20.0455664 L22.6162487,9.01327421 L20.7050132,7.50178002 L20.7050132,19.0897483 L16.5636948,19.0897483 L16.5636948,16.2264475 C16.5636948,14.3041961 14.9842454,12.7267039 13.059609,12.7267039 C11.1349726,12.7267039 9.55552316,14.3041961 9.55552316,16.2264475 L9.55552316,19.0897483 L5.41374269,19.0897483 L5.41374269,9.31649609 L5.41420478,7.26917145 Z" id="Shape"></path>
                </g>
            </g>
        </g>
    </g>
</svg>