<?xml version="1.0" encoding="UTF-8"?>
<svg width="115px" height="25px" viewBox="0 0 115 25" version="1.1" xmlns="http://www.w3.org/2000/svg" xmlns:xlink="http://www.w3.org/1999/xlink">
    <title>A5291899-A43F-443F-B4B9-8E0DFDFC05B3</title>
    <g id="Page-1" stroke="none" stroke-width="1" fill="none" fill-rule="evenodd">
        <g id="Home" transform="translate(-10.000000, -54.000000)" fill-rule="nonzero">
            <g id="komentar-logo-1" transform="translate(10.000000, 54.000000)">
                <path d="M34.6968085,13.4660194 L34.6968085,16.6601942 L32,16.6601942 L32,3 L34.6968085,3 L34.6968085,10.407767 L38.0851064,6.53398058 L41.4042553,6.53398058 L37.7393617,10.4757282 L41.4734043,16.7281553 L38.2234043,16.7281553 L35.7340426,12.3786408 L34.6968085,13.4660194 Z M52.4680851,11.5631068 C52.4680851,13.3300971 51.9148936,14.6893204 50.8776596,15.6407767 C49.9095745,16.5242718 48.6648936,16.9320388 47.212766,16.9320388 C45.6914894,16.9320388 44.4468085,16.5242718 43.5478723,15.6407767 C42.5106383,14.6893204 41.9574468,13.3300971 41.9574468,11.5631068 C41.9574468,9.86407767 42.5106383,8.50485437 43.5478723,7.48543689 C44.5159574,6.60194175 45.7606383,6.19417476 47.212766,6.19417476 C48.7340426,6.19417476 49.9095745,6.60194175 50.8776596,7.48543689 C51.9148936,8.50485437 52.4680851,9.86407767 52.4680851,11.5631068 Z M49.7021277,11.5631068 C49.7021277,10.7475728 49.5638298,10.0679612 49.287234,9.52427184 C48.8723404,8.84466019 48.1808511,8.4368932 47.2819149,8.4368932 C46.3829787,8.4368932 45.6914894,8.77669903 45.2765957,9.45631068 C45,10 44.7925532,10.6796117 44.7925532,11.4951456 C44.7925532,12.3106796 44.9308511,12.9902913 45.2074468,13.5339806 C45.6223404,14.2135922 46.3138298,14.6213592 47.212766,14.6213592 C48.1117021,14.6213592 48.8031915,14.2815534 49.2180851,13.6019417 C49.4946809,13.0582524 49.7021277,12.3786408 49.7021277,11.5631068 Z M68.6489362,9.66019417 L68.6489362,16.6601942 L65.9521277,16.6601942 L65.9521277,10.4757282 C65.9521277,9.7961165 65.8138298,9.25242718 65.537234,8.91262136 C65.2606383,8.57281553 64.9148936,8.4368932 64.4308511,8.4368932 C63.8085106,8.4368932 63.3244681,8.6407767 63.0478723,8.98058252 C62.7712766,9.32038835 62.6329787,9.86407767 62.6329787,10.4757282 L62.6329787,16.592233 L59.9361702,16.592233 L59.9361702,10.4757282 C59.9361702,9.7961165 59.8670213,9.38834951 59.7287234,9.11650485 C59.5212766,8.6407767 59.037234,8.4368932 58.2765957,8.4368932 C57.6542553,8.4368932 57.2393617,8.6407767 56.962766,8.98058252 C56.6861702,9.32038835 56.5478723,9.7961165 56.5478723,10.407767 L56.5478723,16.592233 L53.8510638,16.592233 L53.8510638,6.46601942 L56.4787234,6.46601942 L56.4787234,7.96116505 C56.7553191,7.48543689 57.1010638,7.0776699 57.4468085,6.80582524 C58,6.39805825 58.6914894,6.19417476 59.4521277,6.19417476 C60.143617,6.19417476 60.6968085,6.33009709 61.1117021,6.60194175 C61.5265957,6.87378641 61.9414894,7.2815534 62.287234,7.82524272 C62.6329787,7.34951456 62.9095745,7.00970874 63.1861702,6.80582524 C63.7393617,6.39805825 64.3617021,6.19417476 65.0531915,6.19417476 C66.0904255,6.19417476 66.9893617,6.46601942 67.6117021,7.0776699 C68.3031915,7.68932039 68.6489362,8.57281553 68.6489362,9.66019417 Z M76.6702128,13.6699029 L79.4361702,13.6699029 C79.0904255,14.8252427 78.4680851,15.6407767 77.5691489,16.184466 C76.8085106,16.6601942 75.9095745,16.8640777 74.8723404,16.8640777 C73.2819149,16.8640777 72.037234,16.4563107 71.2074468,15.6407767 C70.2393617,14.6893204 69.7553191,13.2621359 69.7553191,11.2912621 C69.7553191,10.1359223 70.0319149,9.11650485 70.5159574,8.30097087 C71.3457447,6.87378641 72.7287234,6.19417476 74.7340426,6.19417476 C76.0478723,6.19417476 77.0851064,6.53398058 77.9148936,7.21359223 C79.0212766,8.16504854 79.5744681,9.66019417 79.5744681,11.7669903 L79.5744681,12.2427184 L72.4521277,12.2427184 C72.5904255,13.1262136 72.7978723,13.8058252 73.212766,14.1456311 C73.6276596,14.5533981 74.1808511,14.6893204 74.9414894,14.6893204 C75.356383,14.6893204 75.7021277,14.6213592 76.0478723,14.4174757 C76.3244681,14.2815534 76.5319149,14.0097087 76.6702128,13.6699029 Z M72.5212766,10.5436893 L76.7393617,10.5436893 C76.6702128,9.7961165 76.393617,9.25242718 75.9787234,8.84466019 C75.6329787,8.57281553 75.1489362,8.36893204 74.6648936,8.36893204 C74.0425532,8.36893204 73.5585106,8.57281553 73.212766,8.91262136 C72.8670213,9.32038835 72.5904255,9.86407767 72.5212766,10.5436893 Z M90.1542553,9.66019417 L90.1542553,16.6601942 L87.4574468,16.6601942 L87.4574468,10.4757282 C87.4574468,9.93203883 87.3882979,9.45631068 87.25,9.18446602 C86.9734043,8.70873786 86.4893617,8.4368932 85.7287234,8.4368932 C85.106383,8.4368932 84.6223404,8.6407767 84.2074468,9.04854369 C83.7925532,9.45631068 83.5851064,10.0679612 83.5851064,10.815534 L83.5851064,16.6601942 L80.8882979,16.6601942 L80.8882979,6.53398058 L83.4468085,6.53398058 L83.4468085,7.96116505 C83.8617021,7.2815534 84.3457447,6.87378641 84.8297872,6.60194175 C85.3138298,6.33009709 85.9361702,6.19417476 86.5585106,6.19417476 C87.5957447,6.19417476 88.4946809,6.46601942 89.1170213,7.0776699 C89.8085106,7.68932039 90.1542553,8.57281553 90.1542553,9.66019417 Z M95.2021277,3.74757282 L95.2021277,6.46601942 L96.8617021,6.46601942 L96.8617021,8.36893204 L95.2021277,8.36893204 L95.2021277,13.8737864 C95.2021277,14.2135922 95.2712766,14.4174757 95.4095745,14.5533981 C95.5478723,14.6893204 95.8244681,14.6893204 96.3776596,14.6893204 L96.9308511,14.6893204 L96.9308511,16.6601942 L95.6170213,16.7281553 L95.2712766,16.7281553 C94.1648936,16.7281553 93.4042553,16.5242718 92.9893617,16.1165049 C92.643617,15.776699 92.5053191,15.2330097 92.5053191,14.4854369 L92.5053191,8.30097087 L91.1223404,8.30097087 L91.1223404,6.39805825 L92.5053191,6.39805825 L92.5053191,3.67961165 L95.2021277,3.67961165 L95.2021277,3.74757282 Z M106.404255,9.18446602 L106.404255,14.6893204 C106.404255,15.2330097 106.473404,15.6407767 106.542553,15.8446602 C106.680851,16.0485437 106.819149,16.184466 107.026596,16.2524272 L107.026596,16.6601942 L104.12234,16.6601942 C103.984043,16.2524272 103.914894,15.8446602 103.845745,15.4368932 C103.430851,15.9126214 103.015957,16.2524272 102.670213,16.3883495 C102.047872,16.7281553 101.356383,16.8640777 100.526596,16.8640777 C99.6276596,16.8640777 98.9361702,16.6601942 98.3829787,16.184466 C97.6914894,15.6407767 97.4148936,14.8932039 97.4148936,13.9417476 C97.4148936,12.9902913 97.6914894,12.2427184 98.2446809,11.6990291 C98.7978723,11.1553398 99.4893617,10.815534 100.457447,10.6796117 L102.87766,10.3398058 C103.223404,10.2718447 103.5,10.2038835 103.638298,10.0679612 C103.776596,9.93203883 103.845745,9.72815534 103.845745,9.52427184 C103.845745,9.04854369 103.638298,8.70873786 103.223404,8.50485437 C102.946809,8.36893204 102.531915,8.30097087 102.047872,8.30097087 C101.425532,8.30097087 101.010638,8.4368932 100.734043,8.77669903 C100.526596,8.98058252 100.457447,9.32038835 100.388298,9.72815534 L97.7606383,9.72815534 C97.8989362,8.30097087 98.4521277,7.34951456 99.3510638,6.80582524 C100.042553,6.39805825 101.010638,6.19417476 102.324468,6.19417476 C103.361702,6.19417476 104.260638,6.39805825 104.952128,6.73786408 C105.920213,7.21359223 106.404255,8.02912621 106.404255,9.18446602 Z M103.776596,12.9902913 L103.776596,11.6990291 C103.638298,11.7669903 103.430851,11.9029126 103.154255,11.9708738 C102.87766,12.038835 102.462766,12.1747573 101.840426,12.2427184 C101.287234,12.3106796 100.87234,12.4466019 100.595745,12.6504854 C100.25,12.9223301 100.042553,13.2621359 100.042553,13.8058252 C100.042553,14.2135922 100.180851,14.5533981 100.457447,14.7572816 C100.664894,14.961165 100.941489,15.0291262 101.287234,15.0291262 C101.909574,15.0291262 102.531915,14.8252427 103.015957,14.4854369 C103.569149,14.0776699 103.776596,13.6019417 103.776596,12.9902913 Z M108.340426,16.6601942 L108.340426,6.53398058 L110.968085,6.53398058 L110.968085,8.30097087 C111.31383,7.62135922 111.659574,7.14563107 112.005319,6.87378641 C112.489362,6.46601942 113.111702,6.26213592 113.87234,6.26213592 L114.425532,6.26213592 L114.425532,8.98058252 C114.287234,8.98058252 114.218085,8.98058252 114.079787,8.98058252 C113.941489,8.98058252 113.803191,8.98058252 113.664894,8.98058252 C112.696809,8.98058252 112.005319,9.25242718 111.659574,9.7961165 C111.382979,10.2038835 111.175532,10.7475728 111.175532,11.4271845 L111.175532,16.7281553 L108.340426,16.7281553 L108.340426,16.6601942 Z" id="Shape" fill="#EDF1F2"></path>
                <path d="M28,4.352 L28,7.752 L28,8.16 L28,12.648 C28,13.804 27.5213675,14.892 26.7692308,15.708 C25.9487179,16.524 24.8547009,17 23.6239316,17 L21.5726496,17 L20.8205128,15.708 L16.4444444,8.16 L16.4444444,8.16 L16.4444444,8.16 L20.8205128,3.4 L16.7863248,3.4 L14.1880342,6.324 L12.8205128,7.888 L12.6153846,8.16 L12,8.84 L12,8.16 L12,6.46 L12,4.76 L12,3.4 L12,0 L23.6239316,0 C26.017094,0 28,1.972 28,4.352 Z" id="Path" fill="#EDF1F2"></path>
                <path d="M18.028169,17.1935484 L17.2535211,15.8451613 L14.2253521,10.3806452 L11.971831,12.9354839 L11.971831,15.8451613 L11.971831,17.1935484 L10.7042254,17.1935484 L8.38028169,17.1935484 L8.38028169,16.8387097 L8.38028169,15.8451613 L8.38028169,15.4903226 L8.38028169,12.7225806 L8.38028169,7.96774194 L8.38028169,3 L4.50704225,3 C2.04225352,3 0,5.05806452 0,7.54193548 L0,7.96774194 L0,12.6516129 L0,15.8451613 L0,16.2 C0,17.7612903 0.845070423,19.1806452 2.04225352,20.0322581 C2.74647887,20.5290323 3.5915493,20.8129032 4.50704225,20.8129032 L4.78873239,20.8129032 L7.74647887,20.8129032 L7.74647887,25 L8.38028169,24.3612903 L11.971831,20.8129032 L11.971831,20.7419355 L20,20.7419355 L19.8591549,20.5290323 L18.028169,17.1935484 Z" id="Path" fill="#9DA4AE"></path>
            </g>
        </g>
    </g>
</svg>