<?xml version="1.0" encoding="UTF-8"?>
<svg width="20px" height="15px" viewBox="0 0 20 15" version="1.1" xmlns="http://www.w3.org/2000/svg" xmlns:xlink="http://www.w3.org/1999/xlink">
    <title>177AE7DB-B231-4F2C-9E72-33D24FB8DA92</title>
    <g id="Page-1" stroke="none" stroke-width="1" fill="none" fill-rule="evenodd">
        <g id="Home" transform="translate(-345.000000, -59.000000)" fill="#FFFFFF">
            <path d="M345,60.2080537 C345,59.5436242 345.896,59 347,59 L363,59 C364.104,59 365,59.5436242 365,60.2080537 C365,60.8724832 364.104,61.4161074 363,61.4161074 L347,61.4161074 C345.896,61.4161074 345,60.8724832 345,60.2080537 Z M345,66.5 C345,65.8355705 345.64,65.2919463 346.428571,65.2919463 L357.857143,65.2919463 C358.645714,65.2919463 359.285714,65.8355705 359.285714,66.5 C359.285714,67.1644295 358.645714,67.7080537 357.857143,67.7080537 L346.428571,67.7080537 C345.64,67.7080537 345,67.1644295 345,66.5 Z M345,72.7919463 C345,72.1275168 345.64,71.5838926 346.428571,71.5838926 L363.571429,71.5838926 C364.36,71.5838926 365,72.1275168 365,72.7919463 C365,73.4563758 364.36,74 363.571429,74 L346.428571,74 C345.64,74 345,73.4563758 345,72.7919463 L345,72.7919463 Z" id="Menu-icon" transform="translate(355.000000, 66.500000) scale(-1, -1) translate(-355.000000, -66.500000) "></path>
        </g>
    </g>
</svg>