<?xml version="1.0" encoding="UTF-8"?>
<svg width="18px" height="21px" viewBox="0 0 18 21" version="1.1" xmlns="http://www.w3.org/2000/svg" xmlns:xlink="http://www.w3.org/1999/xlink">
    <title>3BD8DA9F-CCAA-4582-86E9-E3BD438E077E</title>
    <g id="Page-1" stroke="none" stroke-width="1" fill="none" fill-rule="evenodd">
        <g id="Home" transform="translate(-132.000000, -16464.000000)" fill="#FFFFFF" fill-rule="nonzero">
            <g id="Group" transform="translate(0.000000, 16458.000000)">
                <g id="New-icon" transform="translate(132.000000, 6.000000)">
                    <path d="M15.8319379,5.80246154 L15.8319379,4.84615385 C15.8301286,4.34676923 15.6767894,3.86030769 15.3931796,3.45323077 C15.1095698,3.04615385 14.7097118,2.73830769 14.2487894,2.57169231 L14.2487894,2.42307692 C14.2487894,1.78015385 13.9986519,1.164 13.5531086,0.709846154 C13.1075654,0.255692308 12.5037073,0 11.8740665,0 L5.54147228,0 C4.91137916,0 4.30752106,0.255230769 3.86243016,0.709846154 C3.41733925,1.16446154 3.16674945,1.78061538 3.16674945,2.42307692 L3.16674945,2.57169231 C2.70537472,2.73830769 2.30551663,3.04615385 2.0223592,3.45323077 C1.73874945,3.86030769 1.58586253,4.34676923 1.58360089,4.84615385 L1.58360089,5.80246154 C1.12222616,5.96907692 0.722368071,6.27692308 0.438758315,6.684 C0.155148559,7.09107692 0.0022616408,7.57753846 0,8.07692308 L0,18.5769231 C0,19.2198462 0.250137472,19.836 0.69568071,20.2901538 C1.14122395,20.7443077 1.74508204,21 2.37472284,21 L15.0399113,21 C15.6700044,21 16.2738625,20.7447692 16.7189534,20.2901538 C17.1640443,19.8355385 17.4146341,19.2193846 17.4146341,18.5769231 L17.4146341,8.07692308 C17.4128248,7.57753846 17.2594856,7.09107692 16.9758758,6.684 C16.6931707,6.27692308 16.2933126,5.96907692 15.8319379,5.80246154 L15.8319379,5.80246154 Z M5.54147228,1.61538462 L11.8740665,1.61538462 C12.0839468,1.61538462 12.2852328,1.70030769 12.4340488,1.85169231 C12.5824124,2.00307692 12.6656408,2.20846154 12.6656408,2.42307692 L4.749898,2.42307692 C4.749898,2.20892308 4.83312639,2.00353846 4.98149002,1.85169231 C5.13030599,1.70030769 5.33159202,1.61538462 5.54147228,1.61538462 Z M3.95832373,4.03846154 L13.4572151,4.03846154 C13.6670953,4.03846154 13.8683814,4.12338462 14.0171973,4.27476923 C14.1660133,4.42615385 14.2487894,4.63153846 14.2487894,4.84615385 L14.2487894,5.65384615 L3.16674945,5.65384615 L3.16674945,4.84615385 C3.16674945,4.632 3.24997783,4.42661538 3.39834146,4.27476923 C3.54715743,4.12338462 3.74844346,4.03846154 3.95832373,4.03846154 Z M15.8319379,18.5769231 C15.8319379,18.7910769 15.7487095,18.9964615 15.6003459,19.1483077 C15.4519823,19.3001538 15.2506962,19.3846154 15.0403636,19.3846154 L2.37517517,19.3846154 C2.1652949,19.3846154 1.96400887,19.2996923 1.8151929,19.1483077 C1.66682927,18.9969231 1.58314856,18.7915385 1.58314856,18.5769231 L1.58314856,8.07692308 C1.58314856,7.86276923 1.66637694,7.65738462 1.8151929,7.50553846 C1.96355654,7.35415385 2.16484257,7.26923077 2.37517517,7.26923077 L15.0403636,7.26923077 C15.2502439,7.26923077 15.4515299,7.35415385 15.6003459,7.50553846 C15.7491619,7.65692308 15.8319379,7.86230769 15.8319379,8.07692308 L15.8319379,18.5769231 Z" id="Shape"></path>
                </g>
            </g>
        </g>
    </g>
</svg>