<?xml version="1.0" encoding="UTF-8"?>
<svg width="16px" height="16px" viewBox="0 0 16 16" version="1.1" xmlns="http://www.w3.org/2000/svg" xmlns:xlink="http://www.w3.org/1999/xlink">
    <title>3B90C6F9-14DE-45DF-B5D0-03EE933AF831</title>
    <g id="Page-1" stroke="none" stroke-width="1" fill="none" fill-rule="evenodd">
        <g id="Vest" transform="translate(-250.000000, -3799.000000)" fill="#FFFFFF" fill-rule="nonzero" stroke="#FFFFFF" stroke-width="0.2">
            <g id="Padding-Group-29-Copy-16" transform="translate(92.000000, 3787.000000)">
                <path d="M172.034483,20.7241379 L166.965517,20.7241379 L166.965517,26.0344828 C166.965517,26.5674483 166.532966,27 166,27 C165.467034,27 165.034483,26.5674483 165.034483,26.0344828 L165.034483,20.7241379 L159.965517,20.7241379 C159.432552,20.7241379 159,20.2915862 159,19.7586207 C159,19.2256552 159.432552,18.7931034 159.965517,18.7931034 L165.034483,18.7931034 L165.034483,13.9655172 C165.034483,13.4325517 165.467034,13 166,13 C166.532966,13 166.965517,13.4325517 166.965517,13.9655172 L166.965517,18.7931034 L172.034483,18.7931034 C172.567448,18.7931034 173,19.2256552 173,19.7586207 C173,20.2915862 172.567448,20.7241379 172.034483,20.7241379 Z" id="Plus-icon"></path>
            </g>
        </g>
    </g>
</svg>