<?xml version="1.0" encoding="UTF-8"?>
<svg width="17px" height="15px" viewBox="0 0 17 15" version="1.1" xmlns="http://www.w3.org/2000/svg" xmlns:xlink="http://www.w3.org/1999/xlink">
    <title>552812F1-FD9B-4DC4-AEAF-984F255400F5</title>
    <g id="Page-1" stroke="none" stroke-width="1" fill="none" fill-rule="evenodd">
        <g id="Vest" transform="translate(-11.000000, -3969.000000)" fill="#143E6C" fill-rule="nonzero">
            <g id="reply-solid" transform="translate(19.661765, 3976.147059) scale(-1, 1) translate(-19.661765, -3976.147059) translate(11.323529, 3969.000000)">
                <path d="M0.270630389,5.03598647 L6.00329883,0.186681711 C6.50509134,-0.237833865 7.29595361,0.106787911 7.29595361,0.766230821 L7.29595361,3.32043942 C12.5278392,3.37911542 16.6764706,4.40628039 16.6764706,9.2632746 C16.6764706,11.22364 15.3872684,13.165723 13.9622115,14.1810825 C13.5175164,14.4979457 12.8837452,14.1002635 13.0477088,13.5866331 C14.5246191,8.95981217 12.3471991,7.73147691 7.29595361,7.66026167 L7.29595361,10.4653189 C7.29595361,11.1257828 6.50447249,11.4688731 6.00329883,11.044868 L0.270630389,6.19508469 C-0.0899658039,5.88999503 -0.0904543725,5.34149091 0.270630389,5.03598647 Z" id="Path"></path>
            </g>
        </g>
    </g>
</svg>