<?xml version="1.0" encoding="UTF-8"?>
<svg width="20px" height="21px" viewBox="0 0 20 21" version="1.1" xmlns="http://www.w3.org/2000/svg" xmlns:xlink="http://www.w3.org/1999/xlink">
    <title>1C2DCEDD-F52B-4B76-A601-0C82E839448B</title>
    <g id="Page-1" stroke="none" stroke-width="1" fill="none" fill-rule="evenodd">
        <g id="Home" transform="translate(-319.000000, -16464.000000)" fill="#FFFFFF" fill-rule="nonzero">
            <g id="Group" transform="translate(0.000000, 16458.000000)">
                <g id="Search-icon" transform="translate(319.000000, 6.000000)">
                    <path d="M19.0217169,21 C18.7650607,21 18.5300224,20.8930124 18.3377602,20.6997892 L13.2510911,15.471694 C12.8877247,15.0861698 12.8877247,14.4857482 13.2722491,14.121437 C13.6567735,13.7571259 14.2556381,13.7571259 14.6190045,14.1426501 L19.7056736,19.3928807 C20.06904,19.7784048 20.06904,20.3788265 19.6845156,20.7431376 C19.5134114,20.9142255 19.2567552,21 19.0217169,21 L19.0217169,21 Z" id="Path"></path>
                    <path d="M8.69889245,17.2715754 C3.89003758,17.2715754 8.84572625e-05,13.3928148 8.84572625e-05,8.63555712 C-0.0214403517,3.87829944 3.88957763,0 8.69889245,0 C13.5082073,0 17.3976073,3.87829944 17.3976073,8.63555712 C17.3976073,13.3928148 13.4861293,17.2715754 8.69889245,17.2715754 L8.69889245,17.2715754 Z M8.69889245,1.90686899 C4.93736064,1.90686899 1.88094355,4.92834556 1.88094355,8.63555712 C1.88094355,12.3427687 4.93736064,15.3642452 8.69889245,15.3642452 C12.4392662,15.3642452 15.4956833,12.3427687 15.4956833,8.63555712 C15.4956833,4.92834556 12.4392662,1.90686899 8.69889245,1.90686899 L8.69889245,1.90686899 Z" id="Shape"></path>
                </g>
            </g>
        </g>
    </g>
</svg>