<?xml version="1.0" encoding="UTF-8"?>
<svg width="19px" height="20px" viewBox="0 0 19 20" version="1.1" xmlns="http://www.w3.org/2000/svg" xmlns:xlink="http://www.w3.org/1999/xlink">
    <title>8AA07B59-B381-4E1B-A660-696F3B82C138</title>
    <g id="Page-1" stroke="none" stroke-width="1" fill="none" fill-rule="evenodd">
        <g id="Search" transform="translate(-334.000000, -110.000000)" fill="#FFFFFF" fill-rule="nonzero">
            <g id="Group" transform="translate(10.000000, 96.000000)">
                <g id="Search-icon" transform="translate(324.000000, 14.000000)">
                    <path d="M18.0926953,20 C17.8485742,20 17.6250152,19.8981071 17.4421431,19.7140849 L12.6039071,14.7349466 C12.2582876,14.3677808 12.2582876,13.7959506 12.6240318,13.4489877 C12.989776,13.1020247 13.559392,13.1020247 13.9050116,13.4691906 L18.7432476,18.4694102 C19.0888671,18.836576 19.0888671,19.4084062 18.7231229,19.7553691 C18.5603754,19.91831 18.3162543,20 18.0926953,20 L18.0926953,20 Z" id="Path"></path>
                    <path d="M8.27403812,16.4491194 C3.70004796,16.4491194 8.41370052e-05,12.7550617 8.41370052e-05,8.22434011 C-0.0203932039,3.69361852 3.69961046,0 8.27403812,0 C12.8484658,0 16.5479073,3.69361852 16.5479073,8.22434011 C16.5479073,12.7550617 12.8274661,16.4491194 8.27403812,16.4491194 L8.27403812,16.4491194 Z M8.27403812,1.8160657 C4.6962197,1.8160657 1.78907818,4.69366244 1.78907818,8.22434011 C1.78907818,11.7550178 4.6962197,14.6326145 8.27403812,14.6326145 C11.8317319,14.6326145 14.7388734,11.7550178 14.7388734,8.22434011 C14.7388734,4.69366244 11.8317319,1.8160657 8.27403812,1.8160657 L8.27403812,1.8160657 Z" id="Shape"></path>
                </g>
            </g>
        </g>
    </g>
</svg>