<?xml version="1.0" encoding="UTF-8"?>
<svg width="15px" height="16px" viewBox="0 0 15 16" version="1.1" xmlns="http://www.w3.org/2000/svg" xmlns:xlink="http://www.w3.org/1999/xlink">
    <title>406D1E22-FCD9-42DC-8C4C-367B62E81C7C</title>
    <g id="Page-1" stroke="none" stroke-width="1" fill="none" fill-rule="evenodd">
        <g id="Vest" transform="translate(-340.000000, -3969.000000)" fill="#C92327" fill-rule="nonzero">
            <g id="thumbs-up-regular-copy" transform="translate(347.500000, 3977.000000) scale(1, -1) translate(-347.500000, -3977.000000) translate(340.000000, 3969.000000)">
                <path d="M14.0245273,8.62309766 C14.2883125,8.1764375 14.4375,7.7 14.4375,7.12400391 C14.4375,5.80011523 13.3180523,4.54991797 11.8561953,4.54991797 L10.7589453,4.54991797 C10.9069297,4.16461719 11.0251367,3.70382031 11.0251367,3.15008203 C11.0251367,0.960575 9.89149219,0 8.15959375,0 C6.3065707,0 6.41226523,2.85540664 6.0011875,3.26648438 C5.31700039,3.95067148 4.50886133,5.26508555 3.93301562,5.775 L0.9625,5.775 C0.430929297,5.775 0,6.2059293 0,6.7375 L0,13.95625 C0,14.4878207 0.430929297,14.91875 0.9625,14.91875 L2.8875,14.91875 C3.33545352,14.91875 3.71188125,14.6127352 3.81926016,14.1983789 C5.15800742,14.2284871 6.07692422,15.3996992 9.16721094,15.3996992 C9.384375,15.3996992 9.625,15.4 9.83554688,15.4 C12.1550816,15.4 13.2038758,14.2142301 13.2325703,12.5326523 C13.6331809,11.9784629 13.8431262,11.2356234 13.754125,10.5177188 C14.0505148,9.96271719 14.1651125,9.30427695 14.0245273,8.62309766 Z M12.1672031,10.2422031 C12.5449844,10.8777539 12.2051016,11.7283633 11.7479141,11.9738008 C11.9795156,13.4410117 11.2182984,13.9559492 10.1501641,13.9559492 L9.01260938,13.9559492 C6.85784258,13.9559492 5.46251836,12.8183945 3.85,12.8183945 L3.85,7.21875 L4.17845312,7.21875 C5.03146875,7.21875 6.22316406,5.08651172 7.02203906,4.28733594 C7.87505469,3.43432031 7.59081641,2.01252734 8.15959375,1.44375 C9.58138672,1.44375 9.58138672,2.43572656 9.58138672,3.15008203 C9.58138672,4.32824219 8.72837109,4.85611328 8.72837109,5.99366797 L11.8561953,5.99366797 C12.4911445,5.99366797 12.991043,6.56244531 12.9937641,7.13122266 C12.996457,7.69969922 12.6081484,8.26847656 12.3239102,8.26847656 C12.729634,8.70626367 12.8163191,9.62909062 12.1672031,10.2422031 Z M2.646875,12.99375 C2.646875,13.3924355 2.32368555,13.715625 1.925,13.715625 C1.52631445,13.715625 1.203125,13.3924355 1.203125,12.99375 C1.203125,12.5950645 1.52631445,12.271875 1.925,12.271875 C2.32368555,12.271875 2.646875,12.5950645 2.646875,12.99375 Z" id="Shape"></path>
            </g>
        </g>
    </g>
</svg>