<?xml version="1.0" encoding="UTF-8"?>
<svg width="27px" height="21px" viewBox="0 0 27 21" version="1.1" xmlns="http://www.w3.org/2000/svg" xmlns:xlink="http://www.w3.org/1999/xlink">
    <title>55F2B072-D1C5-430C-953C-713E97F67E8E</title>
    <g id="Page-1" stroke="none" stroke-width="1" fill="none" fill-rule="evenodd">
        <g id="Home" transform="translate(-222.000000, -16464.000000)" fill="#FFFFFF">
            <g id="Group" transform="translate(0.000000, 16458.000000)">
                <g id="Video-icon" transform="translate(222.000000, 6.000000)">
                    <path d="M5.00392923,0.000562309217 C2.24061654,0.000562309217 2.27315831e-15,2.20368982 2.27315831e-15,4.92076795 L2.27315831e-15,16.0797944 C2.27315831e-15,18.7968725 2.24061654,21 5.00392923,21 L21.7233435,21 C24.4866562,21 26.7272727,18.7968725 26.7272727,16.0797944 L26.7272727,4.92020564 C26.7272727,2.20312751 24.4866562,0 21.7233435,0 L5.00392923,0.000562309217 Z M2.00157169,4.92076795 C2.00157169,3.29063354 3.34548411,1.96864457 5.00392923,1.96864457 L21.7233435,1.96864457 C23.3817886,1.96864457 24.725701,3.29063354 24.725701,4.92076795 L24.725701,16.0797944 C24.725701,17.7099288 23.3817886,19.0319177 21.7233435,19.0319177 L5.00392923,19.0319177 C3.34548411,19.0319177 2.00157169,17.7099288 2.00157169,16.0797944 L2.00157169,4.92076795 Z M17.6767374,12.4866385 C19.3157387,11.62012 19.3157387,9.30846677 17.6767374,8.44194827 L13.1789199,6.06394259 C11.6234127,5.24128421 9.73793221,6.34903336 9.73793221,8.08600653 L9.73793221,12.8425802 C9.73793221,14.5795534 11.6234127,15.6873025 13.1789199,14.8646441 L17.6767374,12.4866385 Z M16.7285643,10.1749853 C16.9624623,10.2986933 16.9624623,10.6287688 16.7285643,10.7524768 L12.2313187,13.1310448 C12.0088583,13.2485675 11.7395039,13.0899963 11.7395039,12.8420179 L11.7395039,8.08544422 C11.7395039,7.83746586 12.0088583,7.67889466 12.2313187,7.79641729 L16.7285643,10.1749853 Z" id="Shape"></path>
                </g>
            </g>
        </g>
    </g>
</svg>